/* XPM */
static const char *question16x16_xpm[] = {
/* columns rows colors chars-per-pixel */
"16 16 159 2",
"b. c #737D87",
"3  c #FCFEFF",
"h  c #E1F0FA",
"&. c #C6E5FF",
"Y  c #D0EAFF",
"l  c #E6F1FC",
";. c #B7CDE3",
"D. c #92B7DC",
"9. c #7490AB",
"&  c #FFFFFF",
",. c #88A9D3",
"-. c #444444",
"(  c #6089CB",
"A  c #767B80",
"y. c #4775C8",
"B. c #7C9EBE",
"R  c #B0C6DE",
"r  c #E9EFF4",
"d  c #6A88BD",
"u. c #B8DDFF",
"B  c #E7F8FF",
" . c #B5C7D9",
"q  c #FDFFFF",
"S. c #8199B1",
".  c #BFC9D2",
"+. c #D6EFFF",
"X. c #D1EBFF",
"|  c #90A5B8",
"<. c #000049",
"#  c #E2E8ED",
"a  c #5E7AAB",
"4  c #FBFFFF",
"*  c #ECF0F5",
"$  c #ECEDEF",
"W  c #D1E2F6",
"P  c #CFEBFF",
"9  c #000057",
"o  c #F6F5F5",
"%. c #C5E3FF",
"x  c #E5F2FF",
"6  c #00005C",
".. c #D4ECFF",
">  c #364E90",
"7. c #52606E",
"#. c #B6D1F1",
"'  c #CAE4FF",
"x. c #6E90B1",
"s  c #000064",
":  c #4D71B9",
"V  c #D9EDFF",
"u  c #7F99C5",
"2  c #E0E2E3",
"$. c #D2EFFF",
"p. c #A5C5E4",
"+  c #F9F9F8",
"G  c #DEEEFF",
";  c #849AC5",
"5. c #AFCDED",
"{  c #A0BBD6",
"v. c #5C5C5C",
"G. c #6B6B6B",
"y  c #EDF7FF",
"L  c #1946A5",
"K  c #82A0CE",
"p  c #BED3EB",
"<  c #EDF1F5",
"H  c #DCEEFF",
"M  c #0F3BA7",
"*. c #ADCAE5",
"]  c #CBE8FF",
"z  c #EBF7FF",
"m. c #768CA2",
"e. c #CEEFFF",
"4. c #BFE3FF",
"~  c #D5EAFF",
"7  c #B2C5E2",
"[  c #C4E1FB",
"5  c #8598BD",
"d. c #5D5D5D",
"w  c #DAE5F0",
"V. c #4C5A67",
"i  c #001D8D",
"3. c #C7E8FF",
"D  c #DDECFB",
"k. c #C0E7FF",
"c  c #E7F4FF",
"8. c #656565",
")  c #9FBFE8",
"=  c #C9D3DD",
"M. c #89A9C6",
"h. c #9DBFDE",
"!  c #D6EBFF",
"F. c #6B859E",
"E  c #A9B8CA",
"c. c #4D5E6F",
"^  c #D4EBFF",
"l. c #A0C3E4",
"@  c #EAEFF4",
"0  c #9DB3D2",
"j. c #AACEF3",
"t. c #113A9D",
":. c #CDEAFF",
"%  c #FEFCFA",
"/  c #E6FBFF",
"`  c #CDE7FF",
"2. c #BCE1FF",
"z. c #85A6C4",
"X  c #E8ECEF",
"m  c #0F3488",
"_  c #E9FFFF",
"S  c #B9C5CF",
"1. c #001F70",
"f. c #8AA4C1",
"@. c #99B6DC",
"I  c #E4F8FF",
"C  c #DAF0FF",
"Z  c #B2C7DD",
"i. c #BADEFF",
"g  c #E9F9FF",
"J  c #DFF1FF",
"e  c #99A7B5",
"}  c #585B5D",
"O  c #FAF9F6",
"8  c #213E85",
"g. c #92AFCF",
"T  c #CEE8FF",
"f  c #F8FFFF",
"j  c #ABC0D6",
"Q  c #DDF1FF",
"N. c #9FC4EA",
"U  c #D3E9FF",
"   c None",
"s. c #546D85",
"=. c #7C99B5",
"a. c #86A4C3",
"v  c #E7F6FF",
",  c #97A7C2",
"w. c #BDDCFC",
"t  c #F6FFFF",
"q. c #A9C3DC",
"N  c #B8D2ED",
"J. c #6185AB",
"n  c #EFFEFF",
"A. c #6D7883",
"1  c #B8C6D4",
"-  c #ECEBEB",
"r. c #93B6E3",
"0. c #89A2B9",
"H. c #739BC3",
"O. c #CFE9FF",
"b  c #DEF2FF",
">. c #D7F4FF",
"6. c #87A5C2",
"k  c #757D84",
"F  c #E3F3FF",
"C. c #525252",
"n. c #697E93",
"Z. c #707070",
"o. c #CDE6FF",
/* pixels */
"        . X o O + @ # .         ",
"    . $ % & & & & & & * =       ",
"  . - & & & ; : > , & & < 1     ",
"  2 3 4 & 5 6 7 8 9 0 & q w e   ",
". r t y & u i p a s d f g h j k ",
". l z x c v b n m M N B V C Z A ",
"S D F G H J f K L P I U Y T R k ",
"E W Q ! ~ ^ / ( ) _ ` ' ] [ { } ",
"|  ...X.o.O.+.@.#.$.%.%.&.*.=.-.",
"  | ;.:.] >.,.<.1.2.3.4.5.6.7.8.",
"  9.0.q.w.e.r.t.y.u.i.p.a.s.d.  ",
"    9.9.f.g.h.j.k.l.z.x.c.v.    ",
"        b.n.m.M.N.B.V.C.Z.      ",
"            A.S.D.F.G.          ",
"              A.H.J.A.          ",
"                A.A.A.          "
};
